<svg width="15" height="14" viewBox="0 0 15 14" fill="none" xmlns="http://www.w3.org/2000/svg">
<path d="M7.50167 3.41058C5.3734 3.41058 3.65672 5.01317 3.65672 7C3.65672 8.98683 5.3734 10.5894 7.50167 10.5894C9.62995 10.5894 11.3466 8.98683 11.3466 7C11.3466 5.01317 9.62995 3.41058 7.50167 3.41058ZM7.50167 9.33359C6.12632 9.33359 5.00195 8.28707 5.00195 7C5.00195 5.71293 6.12298 4.66641 7.50167 4.66641C8.88037 4.66641 10.0014 5.71293 10.0014 7C10.0014 8.28707 8.87702 9.33359 7.50167 9.33359ZM12.4007 3.26375C12.4007 3.72922 11.9992 4.10097 11.5039 4.10097C11.0053 4.10097 10.6071 3.7261 10.6071 3.26375C10.6071 2.80141 11.0086 2.42653 11.5039 2.42653C11.9992 2.42653 12.4007 2.80141 12.4007 3.26375ZM14.9473 4.11347C14.8904 2.99197 14.616 1.99855 13.7359 1.18007C12.8592 0.361598 11.795 0.105433 10.5937 0.0492023C9.35555 -0.0164008 5.64445 -0.0164008 4.4063 0.0492023C3.20831 0.102309 2.14417 0.358474 1.26408 1.17695C0.383993 1.99543 0.112939 2.98884 0.052705 4.11034C-0.0175683 5.26621 -0.0175683 8.73067 0.052705 9.88653C0.109593 11.008 0.383993 12.0015 1.26408 12.8199C2.14417 13.6384 3.20496 13.8946 4.4063 13.9508C5.64445 14.0164 9.35555 14.0164 10.5937 13.9508C11.795 13.8977 12.8592 13.6415 13.7359 12.8199C14.6127 12.0015 14.8871 11.008 14.9473 9.88653C15.0176 8.73067 15.0176 5.26933 14.9473 4.11347ZM13.3477 11.1267C13.0867 11.739 12.5814 12.2108 11.9222 12.4575C10.935 12.8231 8.59258 12.7387 7.50167 12.7387C6.41076 12.7387 4.06497 12.8199 3.08115 12.4575C2.42526 12.2139 1.91997 11.7422 1.65561 11.1267C1.26408 10.2052 1.35443 8.01841 1.35443 7C1.35443 5.98159 1.26743 3.7917 1.65561 2.87326C1.91662 2.26096 2.42192 1.78924 3.08115 1.54245C4.06832 1.17695 6.41076 1.2613 7.50167 1.2613C8.59258 1.2613 10.9384 1.18007 11.9222 1.54245C12.5781 1.78612 13.0834 2.25784 13.3477 2.87326C13.7393 3.79482 13.6489 5.98159 13.6489 7C13.6489 8.01841 13.7393 10.2083 13.3477 11.1267Z" fill="white"/>
</svg>
