<svg width="15" height="12" viewBox="0 0 15 12" fill="none" xmlns="http://www.w3.org/2000/svg">
<g clip-path="url(#clip0_6_156)">
<path d="M14.6395 1.58766C14.1054 1.82472 13.5389 1.98033 12.9588 2.04931C13.563 1.68647 14.0269 1.1119 14.2454 0.427301C13.671 0.768809 13.0426 1.00942 12.3873 1.13875C11.8535 0.568976 11.0931 0.212891 10.2514 0.212891C8.63544 0.212891 7.32524 1.52559 7.32524 3.14464C7.32524 3.37445 7.35115 3.59819 7.40101 3.81282C4.96914 3.69052 2.81305 2.52334 1.36981 0.749559C1.11799 1.18257 0.973694 1.68624 0.973694 2.22347C0.973694 3.24065 1.49032 4.13798 2.27543 4.66376C1.81075 4.64918 1.3563 4.52343 0.950016 4.29702C0.949849 4.3093 0.949849 4.32158 0.949849 4.33392C0.949849 5.75441 1.95847 6.93938 3.29703 7.20872C2.86614 7.32614 2.41417 7.34332 1.97563 7.25896C2.34796 8.42373 3.42863 9.27133 4.70902 9.29505C3.70758 10.0814 2.44585 10.5501 1.07498 10.5501C0.838757 10.5501 0.605877 10.5362 0.376953 10.5091C1.67189 11.341 3.20995 11.8263 4.8624 11.8263C10.2447 11.8263 13.1878 7.35888 13.1878 3.48465C13.1878 3.35748 13.185 3.23105 13.1793 3.10534C13.7522 2.69041 14.2466 2.17648 14.6395 1.58766" fill="white"/>
</g>
<defs>
<clipPath id="clip0_6_156">
<rect width="14.2625" height="11.6667" fill="white" transform="translate(0.376953 0.166992)"/>
</clipPath>
</defs>
</svg>
